<svg width="201" height="23" viewBox="0 0 201 23" fill="none" xmlns="http://www.w3.org/2000/svg">
<path d="M0.152 21.008L0.856 20.848C1.45333 20.656 1.90133 20.4 2.2 20.08C2.52 19.7387 2.68 19.2053 2.68 18.48V3.824C2.68 3.568 2.62667 3.39733 2.52 3.312C2.41333 3.20533 2.25333 3.152 2.04 3.152H0.376L0.024 2.064C0.941333 1.744 2.136 1.456 3.608 1.2C5.08 0.922665 6.49867 0.783998 7.864 0.783998C11.896 0.783998 14.7973 1.78667 16.568 3.792C18.3387 5.79733 19.224 8.41067 19.224 11.632C19.224 13.5947 18.8613 15.3653 18.136 16.944C17.4107 18.5013 16.3227 19.7387 14.872 20.656C13.4427 21.552 11.6827 22 9.592 22H0.504L0.152 21.008ZM8.696 20.528C13.624 20.528 16.088 17.5413 16.088 11.568C16.088 9.92533 15.8 8.41067 15.224 7.024C14.6693 5.63733 13.816 4.51733 12.664 3.664C11.512 2.81067 10.0933 2.384 8.408 2.384C6.50933 2.384 5.56 2.84267 5.56 3.76V16.912C5.56 18.2987 5.848 19.248 6.424 19.76C7 20.272 7.75733 20.528 8.696 20.528ZM21.6908 21.104L22.2348 20.944C22.7468 20.8587 23.0774 20.6667 23.2268 20.368C23.3974 20.048 23.4828 19.5147 23.4828 18.768V10.64C23.4828 10.4053 23.4401 10.2453 23.3548 10.16C23.2694 10.0533 23.1201 10 22.9068 10H21.6588L21.3708 9.232C21.9254 8.72 22.5654 8.304 23.2908 7.984C24.0161 7.664 24.6561 7.504 25.2108 7.504C25.4881 7.504 25.7121 7.58933 25.8828 7.76C26.0534 7.93067 26.1388 8.144 26.1388 8.4V11.568H26.2988C26.6401 10.2667 27.1521 9.22133 27.8348 8.432C28.5388 7.64267 29.2961 7.248 30.1068 7.248C30.9174 7.248 31.5788 7.51467 32.0908 8.048C32.6241 8.56 32.8908 9.27467 32.8908 10.192C32.8908 10.9173 32.6241 11.5253 32.0908 12.016C31.5574 12.5067 30.8854 12.752 30.0748 12.752C29.6908 12.752 29.4988 12.656 29.4988 12.464C29.4988 12.4 29.5734 12.2507 29.7228 12.016C29.8721 11.7813 30.0001 11.5467 30.1068 11.312C30.2134 11.0773 30.2668 10.8 30.2668 10.48C30.2668 10.1173 30.1814 9.84 30.0108 9.648C29.8401 9.43467 29.6161 9.328 29.3388 9.328C28.8908 9.328 28.4214 9.60533 27.9308 10.16C27.4401 10.7147 27.0134 11.6 26.6508 12.816C26.3094 14.032 26.1388 15.5787 26.1388 17.456C26.1388 18.3307 26.2028 19.0453 26.3308 19.6C26.4801 20.1333 26.7254 20.6347 27.0668 21.104L27.4188 21.552L27.0668 22H21.9788L21.6908 21.104ZM40.8743 22.416C39.5303 22.416 38.3569 22.1067 37.3543 21.488C36.3516 20.8693 35.5729 20.0053 35.0182 18.896C34.4636 17.7653 34.1863 16.464 34.1863 14.992C34.1863 13.456 34.4956 12.1013 35.1143 10.928C35.7329 9.75467 36.6076 8.848 37.7383 8.208C38.8903 7.568 40.2129 7.248 41.7063 7.248C43.2849 7.248 44.5009 7.664 45.3543 8.496C46.2289 9.328 46.6663 10.3307 46.6663 11.504C46.6663 12.3147 46.4423 13.0933 45.9943 13.84C45.5676 14.5867 44.9276 15.1947 44.0743 15.664C43.2423 16.1333 42.2609 16.368 41.1302 16.368C40.4903 16.368 39.7969 16.2613 39.0503 16.048C38.3036 15.8133 37.9303 15.472 37.9303 15.024C37.9303 14.8533 37.9729 14.704 38.0583 14.576C38.1436 14.448 38.2396 14.384 38.3463 14.384C38.4103 14.384 38.6023 14.448 38.9223 14.576C39.2636 14.6827 39.7009 14.736 40.2343 14.736C41.4076 14.736 42.3143 14.416 42.9543 13.776C43.5943 13.136 43.9143 12.368 43.9143 11.472C43.9143 10.704 43.6583 10.0427 43.1463 9.488C42.6556 8.93333 41.9943 8.656 41.1623 8.656C39.9036 8.656 38.9223 9.21067 38.2183 10.32C37.5356 11.408 37.1943 12.9653 37.1943 14.992C37.1943 16.72 37.5569 18.0747 38.2823 19.056C39.0289 20.016 40.0956 20.496 41.4823 20.496C43.1889 20.496 44.5969 19.9413 45.7063 18.832C45.7703 18.768 45.8556 18.736 45.9623 18.736C46.1329 18.736 46.3036 18.8213 46.4743 18.992C46.6663 19.1627 46.7623 19.344 46.7623 19.536C46.7623 19.6 46.7409 19.664 46.6983 19.728C46.6556 19.7707 46.6343 19.8027 46.6343 19.824C45.9089 20.6773 45.0449 21.328 44.0423 21.776C43.0609 22.2027 42.0049 22.416 40.8743 22.416ZM54.7468 22.416C53.8081 22.416 52.9334 22.1493 52.1228 21.616C51.3334 21.0613 50.6934 20.2613 50.2028 19.216C49.7334 18.1493 49.4988 16.8587 49.4988 15.344C49.4988 12.848 50.1708 10.8747 51.5148 9.424C52.8801 7.97333 54.7148 7.248 57.0188 7.248C57.7868 7.248 58.8321 7.36533 60.1548 7.6C61.1361 7.77067 62.0214 7.888 62.8108 7.952L63.1948 8.304L62.7788 8.848C62.6294 9.104 62.5228 9.30667 62.4588 9.456C62.4161 9.584 62.3948 9.76533 62.3948 10V19.44C62.3948 20.0373 62.7041 20.336 63.3228 20.336C63.7921 20.336 64.2721 20.1653 64.7628 19.824L65.3068 20.56C64.7948 21.136 64.2508 21.5947 63.6748 21.936C63.0988 22.256 62.5761 22.416 62.1068 22.416C61.2961 22.416 60.7094 22.1813 60.3468 21.712C59.9841 21.2213 59.8028 20.432 59.8028 19.344C59.0348 20.4747 58.2348 21.2747 57.4028 21.744C56.5921 22.192 55.7068 22.416 54.7468 22.416ZM55.8668 20.144C57.4881 20.144 58.8001 19.2693 59.8028 17.52V9.68C58.9708 9.12533 58.0321 8.848 56.9868 8.848C55.6001 8.848 54.5121 9.37067 53.7228 10.416C52.9548 11.44 52.5708 12.9013 52.5708 14.8C52.5708 16.6347 52.8801 17.9893 53.4988 18.864C54.1388 19.7173 54.9281 20.144 55.8668 20.144ZM89.1435 22.416C88.3542 22.416 87.7782 22.1813 87.4155 21.712C87.0742 21.2213 86.9035 20.432 86.9035 19.344V12.432C86.9035 10.448 86.1888 9.456 84.7595 9.456C83.9702 9.456 83.2555 9.776 82.6155 10.416C81.9968 11.0347 81.5062 11.92 81.1435 13.072C80.7808 14.2027 80.5888 15.5147 80.5675 17.008V17.36C80.5675 18.3413 80.6422 19.1307 80.7915 19.728C80.9622 20.3253 81.3035 20.9333 81.8155 21.552L81.4635 22H77.9755V12.432C77.9755 11.4507 77.7835 10.7147 77.3995 10.224C77.0368 9.712 76.4928 9.456 75.7675 9.456C74.9355 9.456 74.1995 9.78667 73.5595 10.448C72.9408 11.1093 72.4608 12.0373 72.1195 13.232C71.7782 14.4267 71.6075 15.8027 71.6075 17.36C71.6075 18.256 71.6715 18.9813 71.7995 19.536C71.9488 20.0907 72.1942 20.6133 72.5355 21.104L72.8875 21.552L72.5355 22H67.4475L67.1595 21.104L67.7035 20.944C68.2155 20.8587 68.5462 20.6667 68.6955 20.368C68.8662 20.048 68.9515 19.5147 68.9515 18.768V10.64C68.9515 10.4053 68.9088 10.2453 68.8235 10.16C68.7382 10.0533 68.5888 10 68.3755 10H67.1275L66.8395 9.232C67.3942 8.72 68.0342 8.304 68.7595 7.984C69.4848 7.664 70.1248 7.504 70.6795 7.504C70.9568 7.504 71.1808 7.58933 71.3515 7.76C71.5222 7.93067 71.6075 8.144 71.6075 8.4V11.568C72.0982 10.288 72.8235 9.25333 73.7835 8.464C74.7648 7.65333 75.7888 7.248 76.8555 7.248C78.0502 7.248 78.9462 7.6 79.5435 8.304C80.1408 8.98667 80.4822 10.0747 80.5675 11.568C81.0582 10.3093 81.7942 9.27467 82.7755 8.464C83.7568 7.65333 84.7702 7.248 85.8155 7.248C87.1168 7.248 88.0555 7.664 88.6315 8.496C89.2288 9.328 89.5275 10.64 89.5275 12.432V19.44C89.5275 20.1013 89.8048 20.432 90.3595 20.432C90.8502 20.432 91.3302 20.2293 91.7995 19.824L92.3755 20.56C91.8635 21.136 91.3195 21.5947 90.7435 21.936C90.1675 22.256 89.6342 22.416 89.1435 22.416ZM100.906 22.416C99.5615 22.416 98.3882 22.1067 97.3855 21.488C96.3828 20.8693 95.6042 20.0053 95.0495 18.896C94.4948 17.7653 94.2175 16.464 94.2175 14.992C94.2175 13.456 94.5268 12.1013 95.1455 10.928C95.7642 9.75467 96.6388 8.848 97.7695 8.208C98.9215 7.568 100.244 7.248 101.738 7.248C103.316 7.248 104.532 7.664 105.386 8.496C106.26 9.328 106.698 10.3307 106.698 11.504C106.698 12.3147 106.474 13.0933 106.026 13.84C105.599 14.5867 104.959 15.1947 104.106 15.664C103.274 16.1333 102.292 16.368 101.161 16.368C100.522 16.368 99.8282 16.2613 99.0815 16.048C98.3348 15.8133 97.9615 15.472 97.9615 15.024C97.9615 14.8533 98.0042 14.704 98.0895 14.576C98.1748 14.448 98.2708 14.384 98.3775 14.384C98.4415 14.384 98.6335 14.448 98.9535 14.576C99.2948 14.6827 99.7322 14.736 100.266 14.736C101.439 14.736 102.346 14.416 102.986 13.776C103.626 13.136 103.946 12.368 103.946 11.472C103.946 10.704 103.69 10.0427 103.178 9.488C102.687 8.93333 102.026 8.656 101.194 8.656C99.9348 8.656 98.9535 9.21067 98.2495 10.32C97.5668 11.408 97.2255 12.9653 97.2255 14.992C97.2255 16.72 97.5882 18.0747 98.3135 19.056C99.0602 20.016 100.127 20.496 101.514 20.496C103.22 20.496 104.628 19.9413 105.738 18.832C105.802 18.768 105.887 18.736 105.994 18.736C106.164 18.736 106.335 18.8213 106.506 18.992C106.698 19.1627 106.794 19.344 106.794 19.536C106.794 19.6 106.772 19.664 106.73 19.728C106.687 19.7707 106.666 19.8027 106.666 19.824C105.94 20.6773 105.076 21.328 104.074 21.776C103.092 22.2027 102.036 22.416 100.906 22.416ZM109.722 21.104L110.266 20.944C110.778 20.8587 111.109 20.6667 111.258 20.368C111.429 20.048 111.514 19.5147 111.514 18.768V10.64C111.514 10.4053 111.471 10.2453 111.386 10.16C111.301 10.0533 111.151 10 110.938 10H109.69L109.402 9.232C109.957 8.72 110.597 8.304 111.322 7.984C112.047 7.664 112.687 7.504 113.242 7.504C113.519 7.504 113.743 7.58933 113.914 7.76C114.085 7.93067 114.17 8.144 114.17 8.4V11.568H114.33C114.671 10.2667 115.183 9.22133 115.866 8.432C116.57 7.64267 117.327 7.248 118.138 7.248C118.949 7.248 119.61 7.51467 120.122 8.048C120.655 8.56 120.922 9.27467 120.922 10.192C120.922 10.9173 120.655 11.5253 120.122 12.016C119.589 12.5067 118.917 12.752 118.106 12.752C117.722 12.752 117.53 12.656 117.53 12.464C117.53 12.4 117.605 12.2507 117.754 12.016C117.903 11.7813 118.031 11.5467 118.138 11.312C118.245 11.0773 118.298 10.8 118.298 10.48C118.298 10.1173 118.213 9.84 118.042 9.648C117.871 9.43467 117.647 9.328 117.37 9.328C116.922 9.328 116.453 9.60533 115.962 10.16C115.471 10.7147 115.045 11.6 114.682 12.816C114.341 14.032 114.17 15.5787 114.17 17.456C114.17 18.3307 114.234 19.0453 114.362 19.6C114.511 20.1333 114.757 20.6347 115.098 21.104L115.45 21.552L115.098 22H110.01L109.722 21.104ZM139.293 22.416C137.906 22.416 136.658 22.224 135.549 21.84C134.461 21.4347 133.607 20.88 132.989 20.176C132.391 19.4507 132.093 18.64 132.093 17.744C132.093 16.7627 132.402 15.952 133.021 15.312C133.661 14.672 134.461 14.352 135.421 14.352C135.613 14.352 135.762 14.384 135.869 14.448C135.975 14.512 136.029 14.5867 136.029 14.672C136.029 14.736 135.933 14.9067 135.741 15.184C135.57 15.4613 135.421 15.7707 135.293 16.112C135.165 16.4533 135.101 16.8587 135.101 17.328C135.101 18.352 135.485 19.184 136.253 19.824C137.021 20.464 138.034 20.784 139.293 20.784C140.402 20.784 141.298 20.496 141.981 19.92C142.663 19.3227 143.005 18.512 143.005 17.488C143.005 16.656 142.791 15.952 142.365 15.376C141.938 14.8 141.405 14.3307 140.765 13.968C140.146 13.584 139.303 13.1573 138.237 12.688C137.021 12.1547 136.029 11.6533 135.261 11.184C134.514 10.7147 133.874 10.096 133.341 9.328C132.829 8.56 132.573 7.58933 132.573 6.416C132.573 5.43467 132.807 4.51733 133.277 3.664C133.767 2.78933 134.493 2.096 135.453 1.584C136.413 1.05067 137.575 0.783998 138.941 0.783998C140.178 0.783998 141.287 0.965332 142.269 1.328C143.25 1.69067 144.018 2.192 144.573 2.832C145.127 3.472 145.405 4.208 145.405 5.04C145.405 6.02133 145.106 6.832 144.509 7.472C143.933 8.09067 143.197 8.4 142.301 8.4C141.917 8.4 141.725 8.28267 141.725 8.048C141.725 8.00533 141.799 7.856 141.949 7.6C142.119 7.32267 142.269 7.01333 142.397 6.672C142.525 6.30933 142.589 5.89333 142.589 5.424C142.589 4.54933 142.247 3.824 141.565 3.248C140.882 2.672 140.007 2.384 138.941 2.384C137.789 2.384 136.903 2.71467 136.285 3.376C135.666 4.016 135.357 4.80533 135.357 5.744C135.357 6.46933 135.559 7.088 135.965 7.6C136.37 8.112 136.871 8.54933 137.469 8.912C138.066 9.25333 138.898 9.65867 139.965 10.128C141.245 10.704 142.279 11.2373 143.069 11.728C143.879 12.2187 144.562 12.88 145.117 13.712C145.671 14.5227 145.949 15.536 145.949 16.752C145.949 18.48 145.362 19.856 144.189 20.88C143.037 21.904 141.405 22.416 139.293 22.416ZM152.751 22.416C151.962 22.416 151.343 22.1707 150.895 21.68C150.447 21.168 150.223 20.4747 150.223 19.6V9.392H147.695C147.695 8.88 147.738 8.54933 147.823 8.4C147.908 8.22933 148.1 8.10133 148.399 8.016C149.423 7.76 150.148 7.33333 150.575 6.736C151.002 6.13867 151.322 5.34933 151.535 4.368C151.578 4.06933 151.674 3.888 151.823 3.824C151.994 3.73867 152.356 3.696 152.911 3.696V7.6H156.655C156.655 8.00533 156.591 8.368 156.463 8.688C156.356 9.008 156.207 9.24267 156.015 9.392H152.911V18.768C152.911 19.3653 152.986 19.792 153.135 20.048C153.306 20.2827 153.594 20.4 153.999 20.4C154.575 20.4 155.226 20.0907 155.951 19.472L156.495 20.24C156.004 20.88 155.407 21.4027 154.703 21.808C153.999 22.2133 153.348 22.416 152.751 22.416ZM165.603 22.416C163.427 22.416 161.699 21.7333 160.419 20.368C159.139 18.9813 158.499 17.1253 158.499 14.8C158.499 12.4747 159.139 10.64 160.419 9.296C161.699 7.93067 163.427 7.248 165.603 7.248C167.032 7.248 168.28 7.55733 169.347 8.176C170.413 8.79467 171.235 9.66933 171.811 10.8C172.387 11.9307 172.675 13.264 172.675 14.8C172.675 16.336 172.376 17.68 171.779 18.832C171.203 19.984 170.381 20.8693 169.315 21.488C168.248 22.1067 167.011 22.416 165.603 22.416ZM165.539 20.848C166.755 20.848 167.736 20.304 168.483 19.216C169.251 18.1067 169.635 16.656 169.635 14.864C169.635 13.9467 169.507 13.0293 169.251 12.112C168.995 11.1733 168.568 10.384 167.971 9.744C167.395 9.08267 166.637 8.752 165.699 8.752C164.44 8.752 163.427 9.30667 162.659 10.416C161.912 11.5253 161.539 12.9973 161.539 14.832C161.539 16.6667 161.891 18.128 162.595 19.216C163.32 20.304 164.301 20.848 165.539 20.848ZM175.441 21.104L175.985 20.944C176.497 20.8587 176.827 20.6667 176.977 20.368C177.147 20.048 177.233 19.5147 177.233 18.768V10.64C177.233 10.4053 177.19 10.2453 177.105 10.16C177.019 10.0533 176.87 10 176.657 10H175.409L175.121 9.232C175.675 8.72 176.315 8.304 177.041 7.984C177.766 7.664 178.406 7.504 178.961 7.504C179.238 7.504 179.462 7.58933 179.633 7.76C179.803 7.93067 179.889 8.144 179.889 8.4V11.568H180.049C180.39 10.2667 180.902 9.22133 181.585 8.432C182.289 7.64267 183.046 7.248 183.857 7.248C184.667 7.248 185.329 7.51467 185.841 8.048C186.374 8.56 186.641 9.27467 186.641 10.192C186.641 10.9173 186.374 11.5253 185.841 12.016C185.307 12.5067 184.635 12.752 183.825 12.752C183.441 12.752 183.249 12.656 183.249 12.464C183.249 12.4 183.323 12.2507 183.473 12.016C183.622 11.7813 183.75 11.5467 183.857 11.312C183.963 11.0773 184.017 10.8 184.017 10.48C184.017 10.1173 183.931 9.84 183.761 9.648C183.59 9.43467 183.366 9.328 183.089 9.328C182.641 9.328 182.171 9.60533 181.681 10.16C181.19 10.7147 180.763 11.6 180.401 12.816C180.059 14.032 179.889 15.5787 179.889 17.456C179.889 18.3307 179.953 19.0453 180.081 19.6C180.23 20.1333 180.475 20.6347 180.817 21.104L181.169 21.552L180.817 22H175.729L175.441 21.104ZM194.624 22.416C193.28 22.416 192.107 22.1067 191.104 21.488C190.102 20.8693 189.323 20.0053 188.768 18.896C188.214 17.7653 187.936 16.464 187.936 14.992C187.936 13.456 188.246 12.1013 188.864 10.928C189.483 9.75467 190.358 8.848 191.488 8.208C192.64 7.568 193.963 7.248 195.456 7.248C197.035 7.248 198.251 7.664 199.104 8.496C199.979 9.328 200.416 10.3307 200.416 11.504C200.416 12.3147 200.192 13.0933 199.744 13.84C199.318 14.5867 198.678 15.1947 197.824 15.664C196.992 16.1333 196.011 16.368 194.88 16.368C194.24 16.368 193.547 16.2613 192.8 16.048C192.054 15.8133 191.68 15.472 191.68 15.024C191.68 14.8533 191.723 14.704 191.808 14.576C191.894 14.448 191.99 14.384 192.096 14.384C192.16 14.384 192.352 14.448 192.672 14.576C193.014 14.6827 193.451 14.736 193.984 14.736C195.158 14.736 196.064 14.416 196.704 13.776C197.344 13.136 197.664 12.368 197.664 11.472C197.664 10.704 197.408 10.0427 196.896 9.488C196.406 8.93333 195.744 8.656 194.912 8.656C193.654 8.656 192.672 9.21067 191.968 10.32C191.286 11.408 190.944 12.9653 190.944 14.992C190.944 16.72 191.307 18.0747 192.032 19.056C192.779 20.016 193.846 20.496 195.232 20.496C196.939 20.496 198.347 19.9413 199.456 18.832C199.52 18.768 199.606 18.736 199.712 18.736C199.883 18.736 200.054 18.8213 200.224 18.992C200.416 19.1627 200.512 19.344 200.512 19.536C200.512 19.6 200.491 19.664 200.448 19.728C200.406 19.7707 200.384 19.8027 200.384 19.824C199.659 20.6773 198.795 21.328 197.792 21.776C196.811 22.2027 195.755 22.416 194.624 22.416Z" fill="#322727"/>
</svg>
